<?xml version="1.0" encoding="UTF-8" standalone="no"?>
<!-- Created with Inkscape (http://www.inkscape.org/) -->

<svg
   width="219.08739mm"
   height="227.77011mm"
   viewBox="0 0 219.08739 227.77011"
   version="1.1"
   id="svg1"
   xml:space="preserve"
   sodipodi:docname="logo.svg"
   inkscape:version="1.4.3 (0d15f75042, 2025-12-25)"
   xmlns:inkscape="http://www.inkscape.org/namespaces/inkscape"
   xmlns:sodipodi="http://sodipodi.sourceforge.net/DTD/sodipodi-0.dtd"
   xmlns="http://www.w3.org/2000/svg"
   xmlns:svg="http://www.w3.org/2000/svg"><sodipodi:namedview
     id="namedview1"
     pagecolor="#000000"
     bordercolor="#cccccc"
     borderopacity="1"
     inkscape:showpageshadow="0"
     inkscape:pageopacity="1"
     inkscape:pagecheckerboard="0"
     inkscape:deskcolor="#d1d1d1"
     inkscape:document-units="mm"
     inkscape:zoom="0.69931958"
     inkscape:cx="158.72571"
     inkscape:cy="578.41938"
     inkscape:window-width="1920"
     inkscape:window-height="994"
     inkscape:window-x="0"
     inkscape:window-y="0"
     inkscape:window-maximized="1"
     inkscape:current-layer="layer1" /><defs
     id="defs1" /><g
     inkscape:label="Layer 1"
     inkscape:groupmode="layer"
     id="layer1"
     transform="translate(-14.744144,-64.470575)"><path
       style="fill:#ffffff;stroke-width:3.57297"
       d="m 83.256094,291.32385 c -7.719183,-2.81704 -11.591024,-9.19219 -10.770287,-17.7337 0.712686,-7.4171 5.233797,-12.20921 13.448544,-14.25473 4.670161,-1.1629 4.670161,-1.1629 14.402299,-23.81408 5.35267,-12.45814 9.73213,-22.7299 9.73213,-22.82615 0,-0.0961 -2.1377,-1.54678 -4.75046,-3.22336 -5.789454,-3.71511 -10.748773,-9.35222 -13.501469,-15.3467 -1.134105,-2.46975 -2.617896,-4.49045 -3.297318,-4.49045 -1.040607,0 -19.538552,4.47172 -31.506756,7.61648 -3.252091,0.85451 -3.447587,1.13316 -3.868493,5.51359 -0.604387,6.28997 -3.439269,11.37099 -8.233873,14.75774 -3.578686,2.52788 -4.767732,2.83605 -10.942226,2.83605 -6.171913,0 -7.366301,-0.30942 -10.953841,-2.83605 -5.92276,-4.17155 -8.661043,-9.87841 -8.225347,-17.14241 0.257075,-4.28582 0.999478,-6.783 2.846222,-9.57365 3.065561,-4.63235 10.736312,-8.73453 16.332966,-8.73453 4.275963,0 13.180693,3.93832 14.637609,6.47381 2.540212,4.42081 1.613182,4.43885 21.184534,-0.41232 18.535424,-4.59436 18.535424,-4.59436 18.535424,-9.88309 0,-5.93737 2.117451,-14.08641 4.802465,-18.48235 1.786144,-2.9243 1.786144,-2.9243 -9.621111,-11.16726 -6.27399,-4.53362 -11.989682,-8.46645 -12.701536,-8.73962 -0.711858,-0.27315 -2.784843,0.64025 -4.606637,2.0298 -3.546287,2.70488 -10.614191,5.20312 -14.720455,5.20312 -9.706256,0 -20.04536,-7.57158 -23.165154,-16.9644 -4.076451,-12.27305 2.129781,-25.80885 14.133011,-30.824121 5.607298,-2.342881 14.620354,-1.783371 20.466102,1.270481 10.874807,5.68107 16.190455,19.38685 11.693347,30.14994 -0.786737,1.88293 -1.318495,3.50806 -1.181686,3.61141 5.548416,4.19122 24.368599,17.48343 24.754448,17.48343 0.297915,0 2.681244,-1.53713 5.296274,-3.41584 5.47374,-3.93249 14.36329,-6.983 20.34931,-6.983 4.75895,0 3.43852,2.99379 10.40678,-23.59466 4.07773,-15.55919 4.07773,-15.55919 0.32407,-18.772216 -5.00945,-4.287896 -7.46987,-9.330289 -7.46987,-15.308698 0,-8.493217 5.5986,-16.069706 13.639,-18.457448 14.54514,-4.319446 28.43975,9.184594 24.20424,23.523905 -2.34479,7.938335 -7.28564,12.189747 -16.57073,14.258457 -4.72458,1.05264 -4.72458,1.05264 -9.17207,18.04729 -2.44609,9.34706 -4.68002,17.91778 -4.96425,19.04604 -0.4433,1.75959 0.12184,2.26718 3.97264,3.56853 9.8066,3.31402 18.73935,12.55555 21.75105,22.5029 1.04984,3.46759 2.15857,5.43493 3.06343,5.43576 0.77994,7.2e-4 8.43725,-1.05584 17.01628,-2.34792 8.57899,-1.29208 16.07945,-2.3556 16.66767,-2.36337 0.58818,-0.008 1.53898,-1.8788 2.11284,-4.15783 3.32404,-13.20089 22.36899,-15.41115 28.54133,-3.31236 5.45018,10.68318 -1.82886,22.73919 -13.72914,22.73919 -5.09456,0 -8.9736,-1.96508 -12.62617,-6.3963 -2.8373,-3.44214 -2.8373,-3.44214 -20.7658,-0.80696 -17.9285,2.63519 -17.9285,2.63519 -18.427,7.91283 -0.50661,5.36361 -2.79803,11.45268 -6.27653,16.67883 -1.92559,2.893 -1.92559,2.893 5.85281,8.57177 4.27814,3.12335 14.2125,10.4413 22.0764,16.26217 14.298,10.5834 14.298,10.5834 19.71202,7.73549 18.47098,-9.71631 37.51957,8.7133 28.24424,27.32645 -6.33359,12.70989 -22.32479,15.04454 -32.60859,4.76074 -6.45179,-6.45182 -7.74831,-13.18988 -4.47808,-23.27324 0.19616,-0.60519 -9.77497,-8.60768 -22.15833,-17.78333 -22.51516,-16.68299 -22.51516,-16.68299 -26.94243,-13.87814 -7.13694,4.52156 -12.81811,5.99713 -21.88917,5.68521 -8.00843,-0.27548 -8.00843,-0.27548 -17.80293,22.77309 -8.924453,21.00108 -9.645268,23.13196 -8.114632,23.98855 5.270152,2.94931 8.600892,10.36255 7.469592,16.62508 -1.80181,9.9742 -12.376605,16.28786 -21.626671,12.91215 z m 9.333394,-5.67935 c 3.631916,-1.51751 7.073386,-6.37465 7.073386,-9.98303 0,-3.00215 -3.053045,-8.05562 -5.733425,-9.4901 -2.89101,-1.54724 -7.889867,-1.52251 -10.834768,0.0536 -6.629297,3.5479 -6.811372,15.42803 -0.285338,18.61798 4.980753,2.43466 5.725632,2.49569 9.780141,0.8016 z M 222.34338,261.82674 c 8.50822,-6.48952 7.69644,-18.3689 -1.69126,-24.74994 -2.70389,-1.83794 -4.17266,-2.16258 -8.28851,-1.83219 -2.9367,0.23582 -6.05959,1.17169 -7.56281,2.26659 -3.04439,2.21746 -6.81455,9.20276 -6.81455,12.62585 0,1.33947 0.95716,4.33355 2.12703,6.65344 4.20206,8.333 14.76916,10.727 22.2301,5.03625 z M 40.830605,213.27354 c 4.80587,-2.93019 7.023557,-7.1921 6.557094,-12.60141 -0.460463,-5.33973 -2.823999,-8.96855 -7.341944,-11.2723 -9.060902,-4.62029 -19.778062,1.91022 -19.778062,12.05175 0,10.35833 11.818922,17.15323 20.562912,11.82196 z m 98.071325,-6.85428 c 5.65076,-2.92316 11.73325,-9.04927 14.78778,-14.89386 1.88017,-3.59757 2.22296,-5.64002 2.22135,-13.2349 -0.002,-7.88286 -0.30763,-9.56097 -2.50276,-13.72628 -10.19401,-19.34382 -34.84244,-23.34299 -50.06282,-8.1226 -15.956557,15.95655 -10.777773,41.95789 10.10958,50.75762 7.60962,3.20589 18.37996,2.87578 25.44687,-0.77998 z m 82.48172,-33.36423 c 6.3467,-7.2589 -1.4835,-18.39195 -10.77345,-15.31777 -7.05208,2.33366 -8.96926,11.28029 -3.5029,16.34636 4.12678,3.82456 10.43011,3.37041 14.27635,-1.02859 z M 59.668096,139.12097 c 6.737133,-3.13678 10.03896,-8.18955 10.460224,-16.00725 0.368134,-6.83169 -1.78415,-11.38202 -7.598487,-16.06463 -2.946881,-2.3733 -4.632967,-2.95039 -9.531391,-3.2623 -8.99681,-0.57287 -15.658103,3.42149 -18.985137,11.38421 -3.990385,9.55033 1.406908,21.29342 11.428828,24.86613 5.28154,1.88282 8.685122,1.66363 14.225963,-0.91616 z M 149.93202,96.962256 c 4.26248,-1.183911 8.99038,-6.367891 9.8146,-10.761451 1.30163,-6.938305 -4.17338,-14.736322 -11.28288,-16.07007 -4.69553,-0.880888 -11.25855,2.086695 -13.78714,6.234102 -3.25194,5.333865 -2.13553,14.079717 2.26334,17.730437 1.24743,1.035269 7.55576,3.67913 9.05209,3.793797 0.26011,0.02001 2.03298,-0.397143 3.93999,-0.926815 z"
       id="path1" /></g></svg>
