<?xml version="1.0" encoding="UTF-8" standalone="no"?>
<!-- Created with Inkscape (http://www.inkscape.org/) -->

<svg
   width="183.62543mm"
   height="114.85438mm"
   viewBox="0 0 183.62542 114.85438"
   version="1.1"
   id="svg1"
   inkscape:version="1.4.3 (0d15f75042, 2025-12-25)"
   sodipodi:docname="logoName.svg"
   xmlns:inkscape="http://www.inkscape.org/namespaces/inkscape"
   xmlns:sodipodi="http://sodipodi.sourceforge.net/DTD/sodipodi-0.dtd"
   xmlns="http://www.w3.org/2000/svg"
   xmlns:svg="http://www.w3.org/2000/svg">
  <sodipodi:namedview
     id="namedview1"
     pagecolor="#000000"
     bordercolor="#cccccc"
     borderopacity="1"
     inkscape:showpageshadow="0"
     inkscape:pageopacity="1"
     inkscape:pagecheckerboard="0"
     inkscape:deskcolor="#d1d1d1"
     inkscape:document-units="mm"
     inkscape:zoom="0.80100022"
     inkscape:cx="164.79396"
     inkscape:cy="187.89009"
     inkscape:window-width="1920"
     inkscape:window-height="994"
     inkscape:window-x="0"
     inkscape:window-y="0"
     inkscape:window-maximized="1"
     inkscape:current-layer="layer1" />
  <defs
     id="defs1" />
  <g
     inkscape:label="Layer 1"
     inkscape:groupmode="layer"
     id="layer1"
     transform="translate(3.3011289,49.53652)">
    <path
       style="font-weight:bold;font-size:157.767px;font-family:'Space Grotesk';-inkscape-font-specification:'Space Grotesk Bold';fill:#ffffff;stroke-width:1.84883"
       d="m 40.084796,65.317855 q -12.779127,0 -22.560681,-4.575243 Q 7.7425607,56.167369 2.2207157,47.647951 -3.3011289,39.128533 -3.3011289,27.138241 V 22.720765 H 17.208581 v 4.417476 q 0,9.939321 6.152913,14.987865 6.152913,4.890777 16.723302,4.890777 10.728156,0 15.934467,-4.259709 5.364078,-4.259709 5.364078,-10.885923 0,-4.575243 -2.682039,-7.415049 Q 56.17703,21.616397 51.128486,19.88096 46.237709,17.987756 39.138194,16.410086 L 35.509553,15.621251 Q 24.150329,13.096979 15.946445,9.310571 7.9003277,5.3663961 3.4828517,-0.94428359 -0.77685688,-7.2549636 -0.77685688,-17.352052 q 0,-10.097088 4.73300958,-17.196603 4.890777,-7.257282 13.5679623,-11.04369 8.834952,-3.944175 20.667477,-3.944175 11.832525,0 20.983011,4.101942 9.308253,3.944175 14.514564,11.990292 5.364078,7.88835 5.364078,19.878642 v 4.7330104 h -20.50971 v -4.7330104 q 0,-6.31068 -2.524272,-10.097088 -2.366505,-3.944175 -6.941748,-5.679612 -4.575243,-1.893204 -10.885923,-1.893204 -9.46602,0 -14.041263,3.628641 -4.417476,3.470874 -4.417476,9.623787 0,4.101942 2.050971,6.941748 2.208738,2.8398064 6.468447,4.7330104 4.259709,1.893204 10.885923,3.313107 l 3.628641,0.788835 q 11.832525,2.52427201 20.50971,6.4684467 8.834952,3.9441749 13.725729,10.4126219 4.890777,6.468447 4.890777,16.565534 0,10.097088 -5.206311,17.827671 -5.048544,7.572816 -14.514564,11.990292 -9.308253,4.259709 -22.08738,4.259709 z M 97.354354,63.109117 V -47.327782 H 118.1796 v 45.5946634 h 41.01942 V -47.327782 h 20.82524 V 63.109117 H 159.19902 V 17.198921 H 118.1796 v 45.910196 z"
       id="text2"
       aria-label="SH" />
    <rect
       style="fill:#c8c4b7;fill-opacity:1;stroke-width:0.286769"
       id="rect2"
       width="30.131216"
       height="18.738556"
       x="97.180367"
       y="-47.319096" />
    <rect
       style="fill:#c8c4b7;stroke-width:0.579064"
       id="rect2-2-5"
       width="108.84461"
       height="21.151228"
       x="-45.311752"
       y="-180.3243"
       transform="rotate(90)" />
    <rect
       style="fill:#c8c4b7;stroke-width:0.579064"
       id="rect2-2-5-2"
       width="108.84461"
       height="21.151228"
       x="-45.311752"
       y="-118.3316"
       transform="rotate(90)" />
    <rect
       style="fill:#c8c4b7;fill-opacity:1;stroke-width:0.286769"
       id="rect2-3"
       width="30.131216"
       height="18.738556"
       x="97.180367"
       y="44.794304" />
    <rect
       style="fill:#c8c4b7;fill-opacity:1;stroke-width:0.286769"
       id="rect2-1"
       width="30.131216"
       height="18.738556"
       x="150.19308"
       y="-47.644844" />
    <rect
       style="fill:#c8c4b7;fill-opacity:1;stroke-width:0.286769"
       id="rect2-1-6"
       width="30.131216"
       height="18.738556"
       x="150.19308"
       y="44.794304" />
  </g>
</svg>
