<?xml version="1.0" encoding="UTF-8" standalone="no"?>
<!-- Created with Inkscape (http://www.inkscape.org/) -->

<svg
   width="192.46759mm"
   height="125.04951mm"
   viewBox="0 0 192.46759 125.04951"
   version="1.1"
   id="svg1"
   inkscape:version="1.4.3 (0d15f75042, 2025-12-25)"
   sodipodi:docname="logoName.svg"
   xmlns:inkscape="http://www.inkscape.org/namespaces/inkscape"
   xmlns:sodipodi="http://sodipodi.sourceforge.net/DTD/sodipodi-0.dtd"
   xmlns="http://www.w3.org/2000/svg"
   xmlns:svg="http://www.w3.org/2000/svg">
  <sodipodi:namedview
     id="namedview1"
     pagecolor="#000000"
     bordercolor="#cccccc"
     borderopacity="1"
     inkscape:showpageshadow="0"
     inkscape:pageopacity="1"
     inkscape:pagecheckerboard="0"
     inkscape:deskcolor="#d1d1d1"
     inkscape:document-units="mm"
     inkscape:zoom="0.72173376"
     inkscape:cx="559.7632"
     inkscape:cy="341.53869"
     inkscape:window-width="1920"
     inkscape:window-height="994"
     inkscape:window-x="0"
     inkscape:window-y="0"
     inkscape:window-maximized="1"
     inkscape:current-layer="layer1" />
  <defs
     id="defs1" />
  <g
     inkscape:label="Layer 1"
     inkscape:groupmode="layer"
     id="layer1"
     transform="translate(-6.466177,-96.627074)">
    <path
       d="m 65.340421,149.75369 q 4.03886,0 8.38841,1.70875 4.34955,1.70875 8.38841,4.50489 h -0.15534 q 4.03887,2.79614 6.21364,7.61171 2.17478,4.81557 2.17478,11.02921 v 21.28172 q 0,12.58262 -8.38842,18.79626 -4.03886,2.95148 -8.38841,4.66023 -4.19421,1.55341 -8.23307,1.55341 H 31.476079 q -4.038866,0 -8.388415,-1.55341 -4.194207,-1.70875 -8.233073,-4.66023 -8.388414,-6.21364 -8.388414,-18.79626 v -10.25251 q 0,-7.30102 9.165119,-7.30102 9.32046,0 9.32046,7.30102 v 9.00978 q 0,4.03887 2.330116,7.30103 2.330115,3.26216 8.077732,3.26216 h 26.097287 q 5.74762,0 8.07773,-3.26216 2.33012,-3.26216 2.33012,-7.30103 v -18.79626 q 0,-3.88352 -2.33012,-7.14568 -2.33011,-3.41751 -8.07773,-3.41751 H 31.476079 q -8.077733,0 -16.621488,-5.90296 -8.388414,-6.52432 -8.388414,-18.79626 V 122.103 q 0,-6.21364 2.174774,-10.87387 2.174774,-4.81557 6.21364,-7.76705 H 14.69925 q 4.038866,-2.6408 8.388414,-4.34955 4.349549,-1.708751 8.388415,-1.708751 h 33.864342 q 4.03886,0 8.38841,1.708751 4.34955,1.70875 8.38841,4.34955 h -0.15534 q 4.03887,2.95148 6.21364,7.76705 2.17478,4.66023 2.17478,10.87387 v 9.16511 q 0,7.30103 -9.32046,7.30103 -9.16512,0 -9.16512,-7.30103 v -7.76705 q 0,-3.88352 -2.33012,-7.14568 -2.33011,-3.26216 -8.07773,-3.26216 H 35.359604 q -5.747617,0 -8.077732,3.26216 -2.330116,3.26216 -2.330116,7.14568 v 15.84479 q 0,4.03886 2.330116,7.30102 2.330115,3.10682 8.077732,3.10682 z M 180.44818,104.08344 q 0,-7.456366 9.16512,-7.456366 9.32046,0 9.32046,7.456366 v 110.13677 q 0,7.45637 -9.32046,7.45637 -9.16512,0 -9.16512,-7.45637 z m -47.22367,110.13677 q 0,7.45637 -9.32046,7.45637 -9.16512,0 -9.16512,-7.45637 V 104.08344 q 0,-7.456366 9.16512,-7.456366 9.32046,0 9.32046,7.456366 z m 36.3498,-57.63151 q 0,5.43693 -3.72819,9.16512 -3.72818,3.72818 -9.16511,3.72818 -5.2816,0 -9.00978,-3.72818 -3.72819,-3.72819 -3.72819,-9.16512 0,-5.43694 3.72819,-9.16512 3.72818,-3.72819 9.00978,-3.72819 5.43693,0 9.16511,3.72819 3.72819,3.72818 3.72819,9.16512 z"
       id="text1"
       style="font-size:155.341px;font-family:gugi;-inkscape-font-specification:gugi;fill:#ffffff;stroke-width:1.8204"
       aria-label="SH" />
  </g>
</svg>
